<svg xmlns="http://www.w3.org/2000/svg" viewBox="0 0 500 214">
  <defs>
    <linearGradient id="bg2" x1="0%" y1="0%" x2="100%" y2="100%">
      <stop offset="0%" style="stop-color:#e3f2fd;stop-opacity:1" />
      <stop offset="100%" style="stop-color:#bbdefb;stop-opacity:1" />
    </linearGradient>
    <linearGradient id="line2" x1="0%" y1="0%" x2="100%" y2="0%">
      <stop offset="0%" style="stop-color:#03a9f3;stop-opacity:1" />
      <stop offset="100%" style="stop-color:#0288d1;stop-opacity:1" />
    </linearGradient>
  </defs>
  <rect width="500" height="214" rx="12" fill="url(#bg2)"/>
  <!-- Line chart -->
  <polyline points="40,140 90,120 140,130 190,90 240,100 290,60 340,70 390,45 440,55"
    stroke="url(#line2)" stroke-width="3" fill="none" stroke-linecap="round" stroke-linejoin="round"/>
  <polygon points="40,140 90,120 140,130 190,90 240,100 290,60 340,70 390,45 440,55 440,160 40,160"
    fill="#03a9f3" opacity="0.1"/>
  <!-- Data points -->
  <circle cx="90" cy="120" r="4" fill="white" stroke="#03a9f3" stroke-width="2"/>
  <circle cx="190" cy="90" r="4" fill="white" stroke="#03a9f3" stroke-width="2"/>
  <circle cx="290" cy="60" r="4" fill="white" stroke="#03a9f3" stroke-width="2"/>
  <circle cx="390" cy="45" r="4" fill="white" stroke="#03a9f3" stroke-width="2"/>
  <!-- Stat cards row -->
  <rect x="30" y="20" width="100" height="45" rx="8" fill="white" opacity="0.9"/>
  <rect x="40" y="30" width="40" height="5" rx="2.5" fill="#03a9f3" opacity="0.5"/>
  <text x="40" y="52" font-family="Roboto,sans-serif" font-size="14" font-weight="700" fill="#333">8.2K</text>
  <rect x="145" y="20" width="100" height="45" rx="8" fill="white" opacity="0.9"/>
  <rect x="155" y="30" width="40" height="5" rx="2.5" fill="#00c292" opacity="0.5"/>
  <text x="155" y="52" font-family="Roboto,sans-serif" font-size="14" font-weight="700" fill="#333">94.3%</text>
  <rect x="260" y="20" width="100" height="45" rx="8" fill="white" opacity="0.9"/>
  <rect x="270" y="30" width="40" height="5" rx="2.5" fill="#ffc107" opacity="0.5"/>
  <text x="270" y="52" font-family="Roboto,sans-serif" font-size="14" font-weight="700" fill="#333">1.2s</text>
  <!-- Grid lines -->
  <line x1="40" y1="160" x2="460" y2="160" stroke="#0288d1" stroke-width="1" opacity="0.2"/>
  <line x1="40" y1="130" x2="460" y2="130" stroke="#0288d1" stroke-width="0.5" opacity="0.1" stroke-dasharray="4,4"/>
  <line x1="40" y1="100" x2="460" y2="100" stroke="#0288d1" stroke-width="0.5" opacity="0.1" stroke-dasharray="4,4"/>
  <line x1="40" y1="70" x2="460" y2="70" stroke="#0288d1" stroke-width="0.5" opacity="0.1" stroke-dasharray="4,4"/>
  <!-- Time labels -->
  <text x="80" y="180" font-family="Roboto,sans-serif" font-size="10" fill="#666" text-anchor="middle">Mon</text>
  <text x="180" y="180" font-family="Roboto,sans-serif" font-size="10" fill="#666" text-anchor="middle">Wed</text>
  <text x="280" y="180" font-family="Roboto,sans-serif" font-size="10" fill="#666" text-anchor="middle">Fri</text>
  <text x="380" y="180" font-family="Roboto,sans-serif" font-size="10" fill="#666" text-anchor="middle">Sun</text>
  <!-- Trend arrow -->
  <rect x="380" y="20" width="90" height="45" rx="8" fill="white" opacity="0.9"/>
  <path d="M395 48 L410 33 L417 33" stroke="#00c292" stroke-width="2" fill="none" stroke-linecap="round" stroke-linejoin="round"/>
  <text x="425" y="42" font-family="Roboto,sans-serif" font-size="12" font-weight="600" fill="#00c292">+12%</text>
</svg>
